<svg xmlns="http://www.w3.org/2000/svg" version="1.1" xmlns:xlink="http://www.w3.org/1999/xlink" xmlns:svgjs="http://svgjs.com/svgjs" width="1440" height="560" preserveAspectRatio="none" viewBox="0 0 1440 560" style=""><g mask="url(&quot;#SvgjsMask1899&quot;)" fill="none"><path width="1440" height="560" fill="rgba(255, 255, 255, 1)" d="M0 0 L1440 0 L1440 560 L0 560 Z" class="dZdhrBYO_0"></path><g mask="url(&quot;#SvgjsMask1901&quot;)"><path d="M228 300L252 276M108 276L132 300M12 276L36 300L60 300L84 300L108 300M-12 276L12 276L36 276L60 276L84 276L108 276L132 276L156 300L180 300L204 300L228 300L252 300L276 300L300 300" stroke="url(#SvgjsLinearGradient1900)" stroke-width="4" class="dZdhrBYO_1"></path><path d="M294 300 a6 6 0 1 0 12 0 a6 6 0 1 0 -12 0zM246 276 a6 6 0 1 0 12 0 a6 6 0 1 0 -12 0zM126 300 a6 6 0 1 0 12 0 a6 6 0 1 0 -12 0zM102 300 a6 6 0 1 0 12 0 a6 6 0 1 0 -12 0z" fill="url(#SvgjsLinearGradient1900)" class="dZdhrBYO_2"></path><path d="M84 324L108 348L132 348M228 324L252 348M204 324L228 348M-12 300L12 324L36 324L60 324L84 324L108 324L132 324L156 324L180 324L204 324L228 324L252 324L276 324L300 324" stroke="url(#SvgjsLinearGradient1900)" stroke-width="4" class="dZdhrBYO_3"></path><path d="M294 324 a6 6 0 1 0 12 0 a6 6 0 1 0 -12 0zM126 348 a6 6 0 1 0 12 0 a6 6 0 1 0 -12 0zM246 348 a6 6 0 1 0 12 0 a6 6 0 1 0 -12 0zM222 348 a6 6 0 1 0 12 0 a6 6 0 1 0 -12 0z" fill="url(#SvgjsLinearGradient1900)" class="dZdhrBYO_4"></path><path d="M-12 252L12 252L36 252L60 252L84 252L108 252L132 252L156 252L180 252L204 252L228 252L252 252L276 252" stroke="url(#SvgjsLinearGradient1900)" stroke-width="4" class="dZdhrBYO_5"></path><path d="M270 252 a6 6 0 1 0 12 0 a6 6 0 1 0 -12 0z" fill="url(#SvgjsLinearGradient1900)" class="dZdhrBYO_6"></path><path d="M36 348L60 348L84 348M300 372L324 396M396 396L420 372L444 372L468 372L492 372L516 372L540 372L564 372M276 372L300 396L324 420M420 396L444 420L468 420L492 420L516 420M-12 324L12 348L36 348L60 372L84 372L108 372L132 372L156 372L180 372L204 372L228 372L252 372L276 372L300 372L324 372L348 372L372 372L396 396L420 396L444 396L468 396" stroke="url(#SvgjsLinearGradient1900)" stroke-width="4" class="dZdhrBYO_7"></path><path d="M462 396 a6 6 0 1 0 12 0 a6 6 0 1 0 -12 0zM78 348 a6 6 0 1 0 12 0 a6 6 0 1 0 -12 0zM318 396 a6 6 0 1 0 12 0 a6 6 0 1 0 -12 0zM558 372 a6 6 0 1 0 12 0 a6 6 0 1 0 -12 0zM318 420 a6 6 0 1 0 12 0 a6 6 0 1 0 -12 0zM510 420 a6 6 0 1 0 12 0 a6 6 0 1 0 -12 0z" fill="url(#SvgjsLinearGradient1900)" class="dZdhrBYO_8"></path><path d="M108 228L132 204L156 180L180 180M228 228L252 204L276 204L300 204M372 228L396 204M180 228L204 204L228 204L252 180L276 180L300 180L324 180M324 228L348 252L372 252L396 252L420 252L444 252M-12 228L12 228L36 228L60 228L84 228L108 228L132 228L156 228L180 228L204 228L228 228L252 228L276 228L300 228L324 228L348 228L372 228L396 228L420 228L444 228L468 228" stroke="url(#SvgjsLinearGradient1900)" stroke-width="4" class="dZdhrBYO_9"></path><path d="M462 228 a6 6 0 1 0 12 0 a6 6 0 1 0 -12 0zM174 180 a6 6 0 1 0 12 0 a6 6 0 1 0 -12 0zM294 204 a6 6 0 1 0 12 0 a6 6 0 1 0 -12 0zM390 204 a6 6 0 1 0 12 0 a6 6 0 1 0 -12 0zM318 180 a6 6 0 1 0 12 0 a6 6 0 1 0 -12 0zM438 252 a6 6 0 1 0 12 0 a6 6 0 1 0 -12 0z" fill="url(#SvgjsLinearGradient1900)" class="dZdhrBYO_10"></path><path d="M156 420L180 444M180 420L204 420L228 420M84 420L108 396M-12 348L12 372L36 372L60 396L84 420L108 420L132 420L156 420L180 420L204 444L228 444L252 444" stroke="url(#SvgjsLinearGradient1900)" stroke-width="4" class="dZdhrBYO_11"></path><path d="M246 444 a6 6 0 1 0 12 0 a6 6 0 1 0 -12 0zM174 444 a6 6 0 1 0 12 0 a6 6 0 1 0 -12 0zM222 420 a6 6 0 1 0 12 0 a6 6 0 1 0 -12 0zM102 396 a6 6 0 1 0 12 0 a6 6 0 1 0 -12 0z" fill="url(#SvgjsLinearGradient1900)" class="dZdhrBYO_12"></path><path d="M300 156L324 132L348 132L372 132L396 132M204 156L228 180M252 156L276 132L300 132M84 204L108 204M-12 204L12 204L36 204L60 204L84 204L108 180L132 180L156 156L180 156L204 156L228 156L252 156L276 156L300 156L324 156L348 156" stroke="url(#SvgjsLinearGradient1900)" stroke-width="4" class="dZdhrBYO_13"></path><path d="M342 156 a6 6 0 1 0 12 0 a6 6 0 1 0 -12 0zM390 132 a6 6 0 1 0 12 0 a6 6 0 1 0 -12 0zM222 180 a6 6 0 1 0 12 0 a6 6 0 1 0 -12 0zM294 132 a6 6 0 1 0 12 0 a6 6 0 1 0 -12 0zM102 204 a6 6 0 1 0 12 0 a6 6 0 1 0 -12 0z" fill="url(#SvgjsLinearGradient1900)" class="dZdhrBYO_14"></path><path d="M-12 372L12 396L36 396L60 420L84 444L108 444L132 444L156 468L180 468" stroke="url(#SvgjsLinearGradient1900)" stroke-width="4" class="dZdhrBYO_15"></path><path d="M174 468 a6 6 0 1 0 12 0 a6 6 0 1 0 -12 0z" fill="url(#SvgjsLinearGradient1900)" class="dZdhrBYO_16"></path><path d="M204 132L228 108L252 108M180 132L204 108M-12 180L12 180L36 180L60 180L84 180L108 156L132 156L156 132L180 132L204 132L228 132" stroke="url(#SvgjsLinearGradient1900)" stroke-width="4" class="dZdhrBYO_17"></path><path d="M222 132 a6 6 0 1 0 12 0 a6 6 0 1 0 -12 0zM246 108 a6 6 0 1 0 12 0 a6 6 0 1 0 -12 0zM198 108 a6 6 0 1 0 12 0 a6 6 0 1 0 -12 0z" fill="url(#SvgjsLinearGradient1900)" class="dZdhrBYO_18"></path><path d="M300 492L324 468L348 468M156 492L180 516L204 516M108 468L132 492L156 516M12 420L36 444L60 468M276 492L300 516L324 516M-12 396L12 420L36 420L60 444L84 468L108 468L132 468L156 492L180 492L204 492L228 492L252 492L276 492L300 492L324 492L348 492L372 492L396 492L420 492L444 492L468 492L492 492L516 492" stroke="url(#SvgjsLinearGradient1900)" stroke-width="4" class="dZdhrBYO_19"></path><path d="M510 492 a6 6 0 1 0 12 0 a6 6 0 1 0 -12 0zM342 468 a6 6 0 1 0 12 0 a6 6 0 1 0 -12 0zM198 516 a6 6 0 1 0 12 0 a6 6 0 1 0 -12 0zM150 516 a6 6 0 1 0 12 0 a6 6 0 1 0 -12 0zM54 468 a6 6 0 1 0 12 0 a6 6 0 1 0 -12 0zM318 516 a6 6 0 1 0 12 0 a6 6 0 1 0 -12 0z" fill="url(#SvgjsLinearGradient1900)" class="dZdhrBYO_20"></path><path d="M60 156L84 156M84 132L108 108M12 156L36 132L60 132L84 108L108 84M-12 156L12 156L36 156L60 156L84 132L108 132L132 132" stroke="url(#SvgjsLinearGradient1900)" stroke-width="4" class="dZdhrBYO_21"></path><path d="M126 132 a6 6 0 1 0 12 0 a6 6 0 1 0 -12 0zM78 156 a6 6 0 1 0 12 0 a6 6 0 1 0 -12 0zM102 108 a6 6 0 1 0 12 0 a6 6 0 1 0 -12 0zM102 84 a6 6 0 1 0 12 0 a6 6 0 1 0 -12 0z" fill="url(#SvgjsLinearGradient1900)" class="dZdhrBYO_22"></path></g></g><defs><mask id="SvgjsMask1899"><path width="1440" height="560" fill="#ffffff" d="M0 0 L1440 0 L1440 560 L0 560 Z" class="dZdhrBYO_23"></path></mask><linearGradient x1="0" y1="280" x2="604.8" y2="280" gradientUnits="userSpaceOnUse" id="SvgjsLinearGradient1900"><stop stop-color="rgba(4, 54, 36, 1)" offset="0"></stop><stop stop-color="rgba(58, 124, 195, 1)" offset="1"></stop></linearGradient><mask id="SvgjsMask1901"><path width="1440" height="560" fill="white" d="M0 0 L1440 0 L1440 560 L0 560 Z" class="dZdhrBYO_24"></path><path d="M297 300 a3 3 0 1 0 6 0 a3 3 0 1 0 -6 0zM249 276 a3 3 0 1 0 6 0 a3 3 0 1 0 -6 0zM129 300 a3 3 0 1 0 6 0 a3 3 0 1 0 -6 0zM105 300 a3 3 0 1 0 6 0 a3 3 0 1 0 -6 0z" fill="black" class="dZdhrBYO_25"></path><path d="M297 324 a3 3 0 1 0 6 0 a3 3 0 1 0 -6 0zM129 348 a3 3 0 1 0 6 0 a3 3 0 1 0 -6 0zM249 348 a3 3 0 1 0 6 0 a3 3 0 1 0 -6 0zM225 348 a3 3 0 1 0 6 0 a3 3 0 1 0 -6 0z" fill="black" class="dZdhrBYO_26"></path><path d="M273 252 a3 3 0 1 0 6 0 a3 3 0 1 0 -6 0z" fill="black" class="dZdhrBYO_27"></path><path d="M465 396 a3 3 0 1 0 6 0 a3 3 0 1 0 -6 0zM81 348 a3 3 0 1 0 6 0 a3 3 0 1 0 -6 0zM321 396 a3 3 0 1 0 6 0 a3 3 0 1 0 -6 0zM561 372 a3 3 0 1 0 6 0 a3 3 0 1 0 -6 0zM321 420 a3 3 0 1 0 6 0 a3 3 0 1 0 -6 0zM513 420 a3 3 0 1 0 6 0 a3 3 0 1 0 -6 0z" fill="black" class="dZdhrBYO_28"></path><path d="M465 228 a3 3 0 1 0 6 0 a3 3 0 1 0 -6 0zM177 180 a3 3 0 1 0 6 0 a3 3 0 1 0 -6 0zM297 204 a3 3 0 1 0 6 0 a3 3 0 1 0 -6 0zM393 204 a3 3 0 1 0 6 0 a3 3 0 1 0 -6 0zM321 180 a3 3 0 1 0 6 0 a3 3 0 1 0 -6 0zM441 252 a3 3 0 1 0 6 0 a3 3 0 1 0 -6 0z" fill="black" class="dZdhrBYO_29"></path><path d="M249 444 a3 3 0 1 0 6 0 a3 3 0 1 0 -6 0zM177 444 a3 3 0 1 0 6 0 a3 3 0 1 0 -6 0zM225 420 a3 3 0 1 0 6 0 a3 3 0 1 0 -6 0zM105 396 a3 3 0 1 0 6 0 a3 3 0 1 0 -6 0z" fill="black" class="dZdhrBYO_30"></path><path d="M345 156 a3 3 0 1 0 6 0 a3 3 0 1 0 -6 0zM393 132 a3 3 0 1 0 6 0 a3 3 0 1 0 -6 0zM225 180 a3 3 0 1 0 6 0 a3 3 0 1 0 -6 0zM297 132 a3 3 0 1 0 6 0 a3 3 0 1 0 -6 0zM105 204 a3 3 0 1 0 6 0 a3 3 0 1 0 -6 0z" fill="black" class="dZdhrBYO_31"></path><path d="M177 468 a3 3 0 1 0 6 0 a3 3 0 1 0 -6 0z" fill="black" class="dZdhrBYO_32"></path><path d="M225 132 a3 3 0 1 0 6 0 a3 3 0 1 0 -6 0zM249 108 a3 3 0 1 0 6 0 a3 3 0 1 0 -6 0zM201 108 a3 3 0 1 0 6 0 a3 3 0 1 0 -6 0z" fill="black" class="dZdhrBYO_33"></path><path d="M513 492 a3 3 0 1 0 6 0 a3 3 0 1 0 -6 0zM345 468 a3 3 0 1 0 6 0 a3 3 0 1 0 -6 0zM201 516 a3 3 0 1 0 6 0 a3 3 0 1 0 -6 0zM153 516 a3 3 0 1 0 6 0 a3 3 0 1 0 -6 0zM57 468 a3 3 0 1 0 6 0 a3 3 0 1 0 -6 0zM321 516 a3 3 0 1 0 6 0 a3 3 0 1 0 -6 0z" fill="black" class="dZdhrBYO_34"></path><path d="M129 132 a3 3 0 1 0 6 0 a3 3 0 1 0 -6 0zM81 156 a3 3 0 1 0 6 0 a3 3 0 1 0 -6 0zM105 108 a3 3 0 1 0 6 0 a3 3 0 1 0 -6 0zM105 84 a3 3 0 1 0 6 0 a3 3 0 1 0 -6 0z" fill="black" class="dZdhrBYO_35"></path></mask></defs><style data-made-with="vivus-instant">.dZdhrBYO_0{stroke-dasharray:4000 4002;stroke-dashoffset:4001;animation:dZdhrBYO_draw_0 6600ms linear 0ms infinite,dZdhrBYO_fade 6600ms linear 0ms infinite;}.dZdhrBYO_1{stroke-dasharray:496 498;stroke-dashoffset:497;animation:dZdhrBYO_draw_1 6600ms linear 0ms infinite,dZdhrBYO_fade 6600ms linear 0ms infinite;}.dZdhrBYO_2{stroke-dasharray:151 153;stroke-dashoffset:152;animation:dZdhrBYO_draw_2 6600ms linear 0ms infinite,dZdhrBYO_fade 6600ms linear 0ms infinite;}.dZdhrBYO_3{stroke-dasharray:448 450;stroke-dashoffset:449;animation:dZdhrBYO_draw_3 6600ms linear 0ms infinite,dZdhrBYO_fade 6600ms linear 0ms infinite;}.dZdhrBYO_4{stroke-dasharray:151 153;stroke-dashoffset:152;animation:dZdhrBYO_draw_4 6600ms linear 0ms infinite,dZdhrBYO_fade 6600ms linear 0ms infinite;}.dZdhrBYO_5{stroke-dasharray:288 290;stroke-dashoffset:289;animation:dZdhrBYO_draw_5 6600ms linear 0ms infinite,dZdhrBYO_fade 6600ms linear 0ms infinite;}.dZdhrBYO_6{stroke-dasharray:38 40;stroke-dashoffset:39;animation:dZdhrBYO_draw_6 6600ms linear 0ms infinite,dZdhrBYO_fade 6600ms linear 0ms infinite;}.dZdhrBYO_7{stroke-dasharray:944 946;stroke-dashoffset:945;animation:dZdhrBYO_draw_7 6600ms linear 0ms infinite,dZdhrBYO_fade 6600ms linear 0ms infinite;}.dZdhrBYO_8{stroke-dasharray:227 229;stroke-dashoffset:228;animation:dZdhrBYO_draw_8 6600ms linear 0ms infinite,dZdhrBYO_fade 6600ms linear 0ms infinite;}.dZdhrBYO_9{stroke-dasharray:982 984;stroke-dashoffset:983;animation:dZdhrBYO_draw_9 6600ms linear 0ms infinite,dZdhrBYO_fade 6600ms linear 0ms infinite;}.dZdhrBYO_10{stroke-dasharray:227 229;stroke-dashoffset:228;animation:dZdhrBYO_draw_10 6600ms linear 0ms infinite,dZdhrBYO_fade 6600ms linear 0ms infinite;}.dZdhrBYO_11{stroke-dasharray:420 422;stroke-dashoffset:421;animation:dZdhrBYO_draw_11 6600ms linear 0ms infinite,dZdhrBYO_fade 6600ms linear 0ms infinite;}.dZdhrBYO_12{stroke-dasharray:151 153;stroke-dashoffset:152;animation:dZdhrBYO_draw_12 6600ms linear 0ms infinite,dZdhrBYO_fade 6600ms linear 0ms infinite;}.dZdhrBYO_13{stroke-dasharray:602 604;stroke-dashoffset:603;animation:dZdhrBYO_draw_13 6600ms linear 0ms infinite,dZdhrBYO_fade 6600ms linear 0ms infinite;}.dZdhrBYO_14{stroke-dasharray:189 191;stroke-dashoffset:190;animation:dZdhrBYO_draw_14 6600ms linear 0ms infinite,dZdhrBYO_fade 6600ms linear 0ms infinite;}.dZdhrBYO_15{stroke-dasharray:232 234;stroke-dashoffset:233;animation:dZdhrBYO_draw_15 6600ms linear 0ms infinite,dZdhrBYO_fade 6600ms linear 0ms infinite;}.dZdhrBYO_16{stroke-dasharray:38 40;stroke-dashoffset:39;animation:dZdhrBYO_draw_16 6600ms linear 0ms infinite,dZdhrBYO_fade 6600ms linear 0ms infinite;}.dZdhrBYO_17{stroke-dasharray:352 354;stroke-dashoffset:353;animation:dZdhrBYO_draw_17 6600ms linear 0ms infinite,dZdhrBYO_fade 6600ms linear 0ms infinite;}.dZdhrBYO_18{stroke-dasharray:114 116;stroke-dashoffset:115;animation:dZdhrBYO_draw_18 6600ms linear 0ms infinite,dZdhrBYO_fade 6600ms linear 0ms infinite;}.dZdhrBYO_19{stroke-dasharray:878 880;stroke-dashoffset:879;animation:dZdhrBYO_draw_19 6600ms linear 0ms infinite,dZdhrBYO_fade 6600ms linear 0ms infinite;}.dZdhrBYO_20{stroke-dasharray:227 229;stroke-dashoffset:228;animation:dZdhrBYO_draw_20 6600ms linear 0ms infinite,dZdhrBYO_fade 6600ms linear 0ms infinite;}.dZdhrBYO_21{stroke-dasharray:338 340;stroke-dashoffset:339;animation:dZdhrBYO_draw_21 6600ms linear 0ms infinite,dZdhrBYO_fade 6600ms linear 0ms infinite;}.dZdhrBYO_22{stroke-dasharray:151 153;stroke-dashoffset:152;animation:dZdhrBYO_draw_22 6600ms linear 0ms infinite,dZdhrBYO_fade 6600ms linear 0ms infinite;}.dZdhrBYO_23{stroke-dasharray:4000 4002;stroke-dashoffset:4001;animation:dZdhrBYO_draw_23 6600ms linear 0ms infinite,dZdhrBYO_fade 6600ms linear 0ms infinite;}.dZdhrBYO_24{stroke-dasharray:4000 4002;stroke-dashoffset:4001;animation:dZdhrBYO_draw_24 6600ms linear 0ms infinite,dZdhrBYO_fade 6600ms linear 0ms infinite;}.dZdhrBYO_25{stroke-dasharray:76 78;stroke-dashoffset:77;animation:dZdhrBYO_draw_25 6600ms linear 0ms infinite,dZdhrBYO_fade 6600ms linear 0ms infinite;}.dZdhrBYO_26{stroke-dasharray:76 78;stroke-dashoffset:77;animation:dZdhrBYO_draw_26 6600ms linear 0ms infinite,dZdhrBYO_fade 6600ms linear 0ms infinite;}.dZdhrBYO_27{stroke-dasharray:19 21;stroke-dashoffset:20;animation:dZdhrBYO_draw_27 6600ms linear 0ms infinite,dZdhrBYO_fade 6600ms linear 0ms infinite;}.dZdhrBYO_28{stroke-dasharray:114 116;stroke-dashoffset:115;animation:dZdhrBYO_draw_28 6600ms linear 0ms infinite,dZdhrBYO_fade 6600ms linear 0ms infinite;}.dZdhrBYO_29{stroke-dasharray:114 116;stroke-dashoffset:115;animation:dZdhrBYO_draw_29 6600ms linear 0ms infinite,dZdhrBYO_fade 6600ms linear 0ms infinite;}.dZdhrBYO_30{stroke-dasharray:76 78;stroke-dashoffset:77;animation:dZdhrBYO_draw_30 6600ms linear 0ms infinite,dZdhrBYO_fade 6600ms linear 0ms infinite;}.dZdhrBYO_31{stroke-dasharray:95 97;stroke-dashoffset:96;animation:dZdhrBYO_draw_31 6600ms linear 0ms infinite,dZdhrBYO_fade 6600ms linear 0ms infinite;}.dZdhrBYO_32{stroke-dasharray:19 21;stroke-dashoffset:20;animation:dZdhrBYO_draw_32 6600ms linear 0ms infinite,dZdhrBYO_fade 6600ms linear 0ms infinite;}.dZdhrBYO_33{stroke-dasharray:57 59;stroke-dashoffset:58;animation:dZdhrBYO_draw_33 6600ms linear 0ms infinite,dZdhrBYO_fade 6600ms linear 0ms infinite;}.dZdhrBYO_34{stroke-dasharray:114 116;stroke-dashoffset:115;animation:dZdhrBYO_draw_34 6600ms linear 0ms infinite,dZdhrBYO_fade 6600ms linear 0ms infinite;}.dZdhrBYO_35{stroke-dasharray:76 78;stroke-dashoffset:77;animation:dZdhrBYO_draw_35 6600ms linear 0ms infinite,dZdhrBYO_fade 6600ms linear 0ms infinite;}@keyframes dZdhrBYO_draw{100%{stroke-dashoffset:0;}}@keyframes dZdhrBYO_fade{0%{stroke-opacity:1;}93.93939393939394%{stroke-opacity:1;}100%{stroke-opacity:0;}}@keyframes dZdhrBYO_draw_0{1.5151515151515151%{stroke-dashoffset: 4001}48.484848484848484%{ stroke-dashoffset: 0;}100%{ stroke-dashoffset: 0;}}@keyframes dZdhrBYO_draw_1{1.5151515151515151%{stroke-dashoffset: 497}48.484848484848484%{ stroke-dashoffset: 0;}100%{ stroke-dashoffset: 0;}}@keyframes dZdhrBYO_draw_2{1.5151515151515151%{stroke-dashoffset: 152}48.484848484848484%{ stroke-dashoffset: 0;}100%{ stroke-dashoffset: 0;}}@keyframes dZdhrBYO_draw_3{1.5151515151515151%{stroke-dashoffset: 449}48.484848484848484%{ stroke-dashoffset: 0;}100%{ stroke-dashoffset: 0;}}@keyframes dZdhrBYO_draw_4{1.5151515151515151%{stroke-dashoffset: 152}48.484848484848484%{ stroke-dashoffset: 0;}100%{ stroke-dashoffset: 0;}}@keyframes dZdhrBYO_draw_5{1.5151515151515151%{stroke-dashoffset: 289}48.484848484848484%{ stroke-dashoffset: 0;}100%{ stroke-dashoffset: 0;}}@keyframes dZdhrBYO_draw_6{1.5151515151515151%{stroke-dashoffset: 39}48.484848484848484%{ stroke-dashoffset: 0;}100%{ stroke-dashoffset: 0;}}@keyframes dZdhrBYO_draw_7{1.5151515151515151%{stroke-dashoffset: 945}48.484848484848484%{ stroke-dashoffset: 0;}100%{ stroke-dashoffset: 0;}}@keyframes dZdhrBYO_draw_8{1.5151515151515151%{stroke-dashoffset: 228}48.484848484848484%{ stroke-dashoffset: 0;}100%{ stroke-dashoffset: 0;}}@keyframes dZdhrBYO_draw_9{1.5151515151515151%{stroke-dashoffset: 983}48.484848484848484%{ stroke-dashoffset: 0;}100%{ stroke-dashoffset: 0;}}@keyframes dZdhrBYO_draw_10{1.5151515151515151%{stroke-dashoffset: 228}48.484848484848484%{ stroke-dashoffset: 0;}100%{ stroke-dashoffset: 0;}}@keyframes dZdhrBYO_draw_11{1.5151515151515151%{stroke-dashoffset: 421}48.484848484848484%{ stroke-dashoffset: 0;}100%{ stroke-dashoffset: 0;}}@keyframes dZdhrBYO_draw_12{1.5151515151515151%{stroke-dashoffset: 152}48.484848484848484%{ stroke-dashoffset: 0;}100%{ stroke-dashoffset: 0;}}@keyframes dZdhrBYO_draw_13{1.5151515151515151%{stroke-dashoffset: 603}48.484848484848484%{ stroke-dashoffset: 0;}100%{ stroke-dashoffset: 0;}}@keyframes dZdhrBYO_draw_14{1.5151515151515151%{stroke-dashoffset: 190}48.484848484848484%{ stroke-dashoffset: 0;}100%{ stroke-dashoffset: 0;}}@keyframes dZdhrBYO_draw_15{1.5151515151515151%{stroke-dashoffset: 233}48.484848484848484%{ stroke-dashoffset: 0;}100%{ stroke-dashoffset: 0;}}@keyframes dZdhrBYO_draw_16{1.5151515151515151%{stroke-dashoffset: 39}48.484848484848484%{ stroke-dashoffset: 0;}100%{ stroke-dashoffset: 0;}}@keyframes dZdhrBYO_draw_17{1.5151515151515151%{stroke-dashoffset: 353}48.484848484848484%{ stroke-dashoffset: 0;}100%{ stroke-dashoffset: 0;}}@keyframes dZdhrBYO_draw_18{1.5151515151515151%{stroke-dashoffset: 115}48.484848484848484%{ stroke-dashoffset: 0;}100%{ stroke-dashoffset: 0;}}@keyframes dZdhrBYO_draw_19{1.5151515151515151%{stroke-dashoffset: 879}48.484848484848484%{ stroke-dashoffset: 0;}100%{ stroke-dashoffset: 0;}}@keyframes dZdhrBYO_draw_20{1.5151515151515151%{stroke-dashoffset: 228}48.484848484848484%{ stroke-dashoffset: 0;}100%{ stroke-dashoffset: 0;}}@keyframes dZdhrBYO_draw_21{1.5151515151515151%{stroke-dashoffset: 339}48.484848484848484%{ stroke-dashoffset: 0;}100%{ stroke-dashoffset: 0;}}@keyframes dZdhrBYO_draw_22{1.5151515151515151%{stroke-dashoffset: 152}48.484848484848484%{ stroke-dashoffset: 0;}100%{ stroke-dashoffset: 0;}}@keyframes dZdhrBYO_draw_23{1.5151515151515151%{stroke-dashoffset: 4001}48.484848484848484%{ stroke-dashoffset: 0;}100%{ stroke-dashoffset: 0;}}@keyframes dZdhrBYO_draw_24{1.5151515151515151%{stroke-dashoffset: 4001}48.484848484848484%{ stroke-dashoffset: 0;}100%{ stroke-dashoffset: 0;}}@keyframes dZdhrBYO_draw_25{1.5151515151515151%{stroke-dashoffset: 77}48.484848484848484%{ stroke-dashoffset: 0;}100%{ stroke-dashoffset: 0;}}@keyframes dZdhrBYO_draw_26{1.5151515151515151%{stroke-dashoffset: 77}48.484848484848484%{ stroke-dashoffset: 0;}100%{ stroke-dashoffset: 0;}}@keyframes dZdhrBYO_draw_27{1.5151515151515151%{stroke-dashoffset: 20}48.484848484848484%{ stroke-dashoffset: 0;}100%{ stroke-dashoffset: 0;}}@keyframes dZdhrBYO_draw_28{1.5151515151515151%{stroke-dashoffset: 115}48.484848484848484%{ stroke-dashoffset: 0;}100%{ stroke-dashoffset: 0;}}@keyframes dZdhrBYO_draw_29{1.5151515151515151%{stroke-dashoffset: 115}48.484848484848484%{ stroke-dashoffset: 0;}100%{ stroke-dashoffset: 0;}}@keyframes dZdhrBYO_draw_30{1.5151515151515151%{stroke-dashoffset: 77}48.484848484848484%{ stroke-dashoffset: 0;}100%{ stroke-dashoffset: 0;}}@keyframes dZdhrBYO_draw_31{1.5151515151515151%{stroke-dashoffset: 96}48.484848484848484%{ stroke-dashoffset: 0;}100%{ stroke-dashoffset: 0;}}@keyframes dZdhrBYO_draw_32{1.5151515151515151%{stroke-dashoffset: 20}48.484848484848484%{ stroke-dashoffset: 0;}100%{ stroke-dashoffset: 0;}}@keyframes dZdhrBYO_draw_33{1.5151515151515151%{stroke-dashoffset: 58}48.484848484848484%{ stroke-dashoffset: 0;}100%{ stroke-dashoffset: 0;}}@keyframes dZdhrBYO_draw_34{1.5151515151515151%{stroke-dashoffset: 115}48.484848484848484%{ stroke-dashoffset: 0;}100%{ stroke-dashoffset: 0;}}@keyframes dZdhrBYO_draw_35{1.5151515151515151%{stroke-dashoffset: 77}48.484848484848484%{ stroke-dashoffset: 0;}100%{ stroke-dashoffset: 0;}}</style></svg>