<svg height="100" width="100" fill="#497cbf" xmlns="http://www.w3.org/2000/svg" viewBox="0 0 90 90">
    <path d="M62.144 13.851V9.958h2.675V5.526a3.207 3.207 0 00-3.207-3.207H28.388a3.207 3.207 0 00-3.206 3.207v4.432h2.674v3.893c-6.601.4-11.849 5.898-11.849 12.597V75.06c0 6.96 5.66 12.621 12.621 12.621h32.744c6.96 0 12.62-5.66 12.62-12.621V26.448c0-6.699-5.247-12.197-11.848-12.597zm8.972 61.209c0 5.373-4.371 9.744-9.744 9.744H28.628c-5.373 0-9.744-4.371-9.744-9.744V26.448c0-5.372 4.371-9.744 9.744-9.744h2.105v-6.489h28.534v6.49h2.105c5.373 0 9.744 4.37 9.744 9.743V75.06z"/>
    <path d="M36.126 28.655c-1.76 1.933-2.294 4.327-1.13 5.618 1.163 1.291 3.6 1.008 5.705-.542.53 1.199 1.353 2.153 1.903 2.79l.597.695.666-.63c1.333-1.25 4.106-3.881 2.46-7.71 1.32-1.353 1.414-3.499.13-4.924-1.285-1.425-3.432-1.555-4.915-.379-3.658-2.05-6.544.438-7.929 1.637l-.694.597.629.666c.576.613 1.44 1.53 2.578 2.182zm7.18 6.524c-1.117-1.328-2.386-3.222-1.212-5.636a3.572 3.572 0 003.007.162c.912 2.52-.546 4.27-1.794 5.474zm-2.709-10.478a3.573 3.573 0 00-.159 3.002c-2.524.92-4.277-.541-5.483-1.79 1.33-1.118 3.225-2.39 5.642-1.212zM31.125 37.77a.69.69 0 00.975.052c.283-.256 1.65-2.418 1.65-2.418s-2.291 1.136-2.574 1.392a.69.69 0 00-.051.975zM34.561 39.623a.69.69 0 00.833-.511c.088-.371-.01-2.927-.01-2.927s-1.245 2.234-1.334 2.605a.69.69 0 00.511.833zM37.435 38.92a.69.69 0 101.343-.322c-.089-.37-1.336-2.605-1.336-2.605s-.096 2.557-.007 2.928zM30.635 31.375c.36.127 2.912.296 2.912.296s-2.093-1.471-2.452-1.598a.69.69 0 00-.46 1.302zM30.414 34.755c.378-.05 2.73-1.056 2.73-1.056s-2.533-.363-2.91-.313a.69.69 0 10.18 1.37zM31.253 67.469c.425 4.154 4.11 5.09 5.882 5.537l.888.227.186-.897c.172-.823.428-2.057.311-3.363 2.592.335 4.86-.599 5.252-2.293.392-1.693-1.236-3.528-3.712-4.365.678-1.122.989-2.342 1.195-3.158l.228-.888-.898-.185c-1.785-.375-5.517-1.136-7.714 2.38a3.606 3.606 0 00-4.124 2.736 3.606 3.606 0 002.506 4.269zm5.69 4.035c-1.675-.448-3.8-1.27-4.224-3.913a3.606 3.606 0 002.565-1.598c2.186 1.542 1.991 3.81 1.66 5.51zm2.81-12.154c-.448 1.673-1.268 3.794-3.906 4.221a3.605 3.605 0 00-1.6-2.57c1.543-2.177 3.807-1.983 5.506-1.651zM48.857 67.85a.69.69 0 00-.518-.83c-.371-.085-2.927.033-2.927.033s2.245 1.227 2.616 1.313a.691.691 0 00.829-.517zM48.016 64.867a.69.69 0 00-.506-1.285c-.355.14-2.394 1.685-2.394 1.685s2.545-.26 2.9-.4zM45.15 61.103c-.253.285-1.37 2.587-1.37 2.587s2.15-1.386 2.404-1.672a.69.69 0 00-1.034-.915zM42.565 72.284a.69.69 0 101.33-.37c-.101-.367-1.425-2.556-1.425-2.556s-.007 2.559.095 2.926zM46.75 71.135a.691.691 0 00.043-.975c-.258-.282-2.43-1.633-2.43-1.633s1.153 2.284 1.41 2.565c.258.281.695.3.977.043zM47.532 47.131c-1.481 1.178-1.843 3.298-.746 4.873 1.096 1.573 3.207 1.97 4.825.991 3.355 2.471 6.547.369 8.067-.646l.764-.506-.541-.74c-.495-.68-1.238-1.697-2.285-2.486 1.987-1.698 2.816-4.007 1.823-5.433-.993-1.426-3.446-1.45-5.728-.174-.377-1.256-1.074-2.306-1.54-3.006l-.506-.764-.74.54c-1.48 1.077-4.56 3.323-3.393 7.351zm5.165 4.858a3.573 3.573 0 00.524-2.965c2.618-.596 4.174 1.07 5.214 2.46-1.457.942-3.492 1.965-5.738.505zm-1.391-10.742c.943 1.458 1.968 3.497.5 5.747a3.572 3.572 0 00-2.96-.527c-.6-2.622 1.069-4.178 2.46-5.22zM63.552 41.17a.691.691 0 00-.79-1.134c-.312.218-1.94 2.192-1.94 2.192s2.417-.84 2.73-1.058zM64.053 43.289c-.382.002-2.84.707-2.84.707s2.466.676 2.848.674a.69.69 0 00-.008-1.381zM60.559 45.957s1.892 1.721 2.233 1.893a.69.69 0 00.62-1.235c-.342-.171-2.853-.658-2.853-.658zM57.606 38.28a.691.691 0 00-1.372.152c.042.379 1 2.751 1 2.751s.414-2.525.372-2.904zM60.545 37.942a.69.69 0 00-.89.403c-.133.357-.355 2.905-.355 2.905s1.514-2.062 1.648-2.419a.69.69 0 00-.403-.89zM45.433 78.369c-9.875 0-17.88.95-17.88 2.122s8.005 1.162 17.88 1.162c9.876 0 17.881.01 17.881-1.162s-8.005-2.122-17.88-2.122z"/>
</svg>
