<svg width="137mm" height="137mm" version="1.1" viewBox="0 0 137 137" xmlns="http://www.w3.org/2000/svg">
 <g transform="translate(-34 -34.8)" stroke-width=".265">
  <path d="m100 163c-1.17-0.507-1.41-1.12-1.41-3.51 0-1.5 0.136-2.35 0.491-3.04 0.451-0.885 0.456-0.998 0.0661-1.39-0.309-0.309-0.425-0.928-0.425-2.26 0-1.62 0.0798-1.92 0.684-2.52 0.704-0.704 1.71-0.892 2.85-0.532 0.729 0.231 1.36 1.59 1.36 2.91 0 0.793-0.09 0.934-0.595 0.933-0.527-1e-3 -0.599-0.143-0.631-1.24-0.0326-1.14-0.517-1.94-1.18-1.94-0.64 0-1.37 1.06-1.49 2.17-0.118 1.05-0.0456 1.32 0.504 1.87 0.353 0.353 0.814 0.711 1.02 0.795 0.285 0.114 0.158 0.344-0.499 0.909-0.831 0.714-0.889 0.879-1.03 2.89-0.134 1.95-0.0961 2.19 0.432 2.72 0.569 0.569 1.37 0.569 1.98 2e-3 0.133-0.124 0.297-1.48 0.366-3.02 0.114-2.56 0.0864-2.78-0.331-2.62-0.364 0.14-0.437 0.0479-0.366-0.458 0.0797-0.564 0.227-0.634 1.35-0.645 1.05-0.0104 1.26 0.0687 1.26 0.471 0 0.266-0.179 0.552-0.397 0.636-0.311 0.119-0.397 0.653-0.397 2.47 0 2.94-0.33 3.92-1.48 4.41-1.06 0.443-1.08 0.443-2.13-0.0173zm15.6-1.39c-1.25-0.228-1.83-1.43-2.97-6.2-0.682-2.84-1.03-4.83-0.931-5.29 0.37-1.68 2.67-2.62 4.06-1.65 1.17 0.817 1.81 3.27 0.858 3.27-0.346 0-0.547-0.255-0.665-0.843-0.331-1.66-1.71-2.35-2.63-1.32-0.617 0.682-0.56 1.33 0.502 5.77 1.07 4.48 1.38 5.12 2.49 5.12 1.1 0 1.62-0.835 1.42-2.29-0.142-1.04-0.104-1.15 0.392-1.15 0.443 0 0.581 0.217 0.717 1.12 0.343 2.29-1.1 3.83-3.24 3.45zm-29.5-0.74c-1.14-0.33-2.13-0.665-2.21-0.744-0.165-0.165 3.31-12.4 3.61-12.7 0.298-0.32 4.5 0.895 4.5 1.3 0 0.589-0.422 0.639-1.84 0.218-0.756-0.224-1.5-0.366-1.66-0.314-0.247 0.0823-2.31 6.5-2.32 7.23-3e-3 0.154 0.59 0.433 1.32 0.62 0.766 0.196 1.32 0.489 1.32 0.696 0 0.593-0.378 0.646-1.72 0.243-0.704-0.212-1.3-0.355-1.32-0.318-0.211 0.36-0.616 2.18-0.519 2.34 0.069 0.112 0.784 0.35 1.59 0.53 1.57 0.352 1.85 0.558 1.52 1.13-0.177 0.304-0.562 0.264-2.28-0.235zm35.8-7.95c-1.49-3.42-2.67-6.25-2.61-6.29 0.442-0.337 2.98-1.23 3.49-1.23 0.354 0 0.94 0.234 1.3 0.52 0.86 0.677 2.85 5.28 2.85 6.6 0 0.781 0.137 1.07 0.64 1.34 0.654 0.35 1.86 2.78 1.59 3.22-0.339 0.549-0.919 0.155-1.41-0.958-0.29-0.657-0.708-1.26-0.928-1.35-0.422-0.162-2.18 0.324-2.39 0.66-0.067 0.108 0.169 0.826 0.525 1.59 0.774 1.67 0.762 1.53 0.153 1.86-0.448 0.24-0.748-0.316-3.21-5.95zm3.11 0.946c1.15-0.701 1.12-1.42-0.175-4.35-1.35-3.06-1.55-3.24-2.92-2.83-0.588 0.176-1.07 0.45-1.07 0.608 0 0.43 2.95 7.1 3.14 7.1 0.0901-5.3e-4 0.551-0.237 1.02-0.525zm-48.2 3.52c-1.02-0.519-1.89-0.974-1.93-1.01-0.221-0.194 5.62-12 5.94-12 0.202 0 1.19 0.416 2.2 0.925 1.35 0.681 1.8 1.03 1.68 1.33-0.175 0.456-0.692 0.356-2.27-0.438-0.54-0.272-1.05-0.495-1.14-0.495s-0.913 1.58-1.83 3.51l-1.67 3.51 1.23 0.628c1.52 0.778 1.45 0.709 1.18 1.19-0.198 0.355-0.363 0.341-1.38-0.112-0.633-0.283-1.25-0.515-1.38-0.515-0.25 0-1.04 1.39-1.04 1.84 0 0.151 0.711 0.633 1.58 1.07 1.13 0.571 1.54 0.91 1.43 1.19-0.215 0.56-0.516 0.494-2.61-0.573zm53.7-8.32c-1.89-2.92-3.53-5.46-3.63-5.65-0.129-0.226 0.414-0.74 1.65-1.56 2-1.33 2.25-1.42 2.46-0.854 0.0917 0.239-0.37 0.712-1.29 1.33-0.79 0.525-1.44 1.02-1.44 1.09 0 0.0756 0.957 1.57 2.13 3.31 1.39 2.07 2.24 3.11 2.45 2.99 0.176-0.101 0.651-0.414 1.06-0.695 0.708-0.491 1.51-0.476 1.51 0.0285 0 0.133-0.533 0.589-1.19 1.01l-1.19 0.771 0.666 0.98c0.366 0.539 0.752 0.98 0.858 0.98 0.106 0 0.8-0.409 1.54-0.909 1.01-0.678 1.43-0.833 1.65-0.609 0.165 0.165 0.3 0.375 0.3 0.466 0 0.154-3.78 2.64-4 2.63-0.054-2e-3 -1.65-2.4-3.54-5.32zm-63.3 2.7c-0.285-0.18 0.447-1.43 3.28-5.62 2-2.96 3.74-5.49 3.86-5.62 0.314-0.35 3.94 2.2 3.76 2.65-0.204 0.531-0.515 0.457-1.8-0.429-0.635-0.437-1.25-0.789-1.37-0.783-0.256 0.0128-4.32 5.93-4.32 6.29 0 0.135 0.476 0.561 1.06 0.946 0.582 0.385 1.06 0.821 1.06 0.97 0 0.587-0.815 0.528-1.67-0.121-0.494-0.377-1.01-0.682-1.14-0.678-0.132 4e-3 -0.641 0.599-1.13 1.32-0.945 1.39-1.01 1.44-1.59 1.08zm70.1-8.07-4.52-4.87 1.29-1.21c1.47-1.38 2.21-1.65 3.33-1.23 0.754 0.286 3.88 3.45 4.54 4.6 0.611 1.06 0.408 2.2-0.588 3.3l-0.928 1.03 1.24 1.38c0.984 1.09 1.16 1.43 0.862 1.61-0.207 0.131-0.451 0.24-0.544 0.242-0.0925 2e-3 -2.2-2.19-4.69-4.86zm3.32 0.0587c1.07-1.01 0.824-1.86-1.16-4-1.63-1.76-2.56-2.54-3.04-2.56-0.104-5e-3 -0.609 0.359-1.12 0.809l-0.932 0.818 2.56 2.75c1.41 1.51 2.68 2.75 2.82 2.75 0.145 0 0.539-0.259 0.876-0.575zm-80.3 2.18c-0.2-0.124-0.319-0.353-0.265-0.51 0.0541-0.157 2.1-2.44 4.55-5.06l4.45-4.78 1.71 1.51c1.55 1.36 1.67 1.55 1.31 1.91s-0.526 0.294-1.61-0.766l-1.2-1.17-2.63 2.77c-1.44 1.52-2.63 2.91-2.64 3.08-7e-3 0.168 0.429 0.66 0.97 1.09 0.866 0.695 0.94 0.842 0.619 1.23-0.332 0.4-0.455 0.351-1.38-0.554l-1.02-0.993-1.26 1.24c-0.877 0.863-1.36 1.17-1.62 1.01zm83.8-8.83c-2.87-2.22-5.22-4.1-5.23-4.19-0.0202-0.367 2.74-3.68 2.99-3.6 0.555 0.185 0.433 0.654-0.479 1.85-0.513 0.672-0.928 1.32-0.923 1.44 5e-3 0.118 1.34 1.25 2.98 2.52l2.97 2.31 0.985-1.11c0.77-0.868 1.05-1.04 1.3-0.79 0.25 0.25 0.139 0.573-0.513 1.48l-0.833 1.16 1.97 1.41 0.984-1.13c0.541-0.622 0.988-1.22 0.992-1.33 0.0104-0.26 0.318-0.245 0.764 0.0373 0.278 0.176 0.0406 0.653-1.05 2.11-0.776 1.04-1.47 1.88-1.55 1.88-0.0765-4e-3 -2.49-1.82-5.36-4.03zm-88.8 3.14c-1.3-0.721-1.7-2.38-0.888-3.66 0.669-1.05 7.46-6.25 8.4-6.43 2.41-0.467 4.17 2.41 2.57 4.2-0.581 0.651-6.88 5.56-7.65 5.96-0.753 0.394-1.65 0.37-2.44-0.0667zm5.38-3.5c1.99-1.54 3.81-3.1 4.04-3.45 0.397-0.606 0.39-0.696-0.105-1.36-0.291-0.392-0.766-0.748-1.06-0.791-0.337-0.0506-1.85 0.931-4.21 2.74-3.95 3.02-4.34 3.4-4.34 4.14 0 0.625 0.923 1.54 1.56 1.54 0.274 0 2.12-1.26 4.11-2.81zm91.6-4.75c-1.33-0.723-0.773-1.75 0.574-1.05 1.16 0.6 2.05 0.516 2.55-0.241 0.556-0.848 0.291-1.63-0.767-2.28-1.15-0.701-1.56-0.652-3.46 0.414-0.911 0.509-1.94 0.924-2.29 0.923-0.832-5e-3 -4.38-1.98-4.73-2.63-0.149-0.278-0.271-0.88-0.271-1.34 0-1.04 1.25-2.38 2.22-2.38 0.875 0 3.07 1.07 3.07 1.49 0 0.612-0.507 0.646-1.57 0.105-1.32-0.671-1.67-0.674-2.26-0.0207-0.829 0.916-0.359 1.68 1.69 2.76 2.06 1.08 1.93 1.1 4.78-0.515 1.35-0.765 1.96-0.712 3.52 0.304 1.67 1.09 1.9 2.76 0.581 4.19-0.495 0.534-0.879 0.68-1.77 0.672-0.625-6e-3 -1.46-0.188-1.86-0.405zm-102-0.121c-0.69-0.277-1.65-1.74-1.65-2.51 0-1.31 0.933-2.09 5.13-4.3 4.61-2.43 5.65-2.66 6.9-1.59 0.986 0.848 1.17 2.46 0.397 3.44-0.659 0.836-2.01 1.61-2.39 1.38-0.502-0.31-0.244-0.808 0.675-1.3 0.515-0.277 1-0.779 1.09-1.12 0.213-0.849-0.541-1.94-1.34-1.94-0.863 0-8.07 3.8-8.81 4.64-0.749 0.854-0.745 1.05 0.0424 1.84 0.563 0.563 0.741 0.606 1.52 0.363 0.486-0.151 1.08-0.334 1.31-0.407 0.243-0.0754 0.498 0.0536 0.592 0.3 0.124 0.322-0.119 0.562-0.956 0.942-1.24 0.563-1.63 0.601-2.51 0.249zm76.3-71.6c-0.677-1.56-1.18-2.89-1.12-2.95 0.0638-0.0638 0.727 1.1 1.47 2.59 0.824 1.64 1.26 2.8 1.12 2.95-0.147 0.147-0.727-0.872-1.47-2.59zm-49.5-0.344c0.845-1.59 1.57-2.85 1.61-2.81 0.22 0.22-2.45 5.7-2.77 5.7-0.252 0 0.127-0.944 1.16-2.89zm-4.9 2.12c0.0937-0.259 5.16-4.55 5.8-4.91 0.534-0.302-0.322 0.547-3.04 3.01-2.16 1.96-2.99 2.53-2.76 1.9zm56.2-2.57c-3.22-3.11-3.09-3.08 0.728 0.153 2.33 1.97 2.96 2.68 2.38 2.66-0.109-0.0033-1.51-1.27-3.11-2.81zm-43.4 1.97c-0.0651-0.188-1.13-3.07-2.37-6.41-1.24-3.34-2.23-6.09-2.19-6.13 0.0342-0.0325 0.286-0.1 0.559-0.15 0.416-0.0765 0.717 0.488 1.85 3.48l1.36 3.57 0.218-4.1c0.175-3.29 0.303-4.17 0.646-4.43 0.67-0.518 0.91-0.393 0.758 0.397-0.0768 0.4-0.215 2.51-0.307 4.7l-0.167 3.97 2.71 1.64c2.51 1.52 2.67 1.66 2.07 1.89-0.353 0.133-0.701 0.214-0.774 0.179-0.0728-0.0346-0.999-0.572-2.06-1.19-1.06-0.623-2-1.06-2.08-0.979-0.0841 0.0841 0.0907 0.874 0.388 1.76 0.535 1.58 0.536 1.61 0.0254 1.88-0.383 0.205-0.546 0.188-0.634-0.0661zm34.1-0.385c-0.249-0.1-0.332-1.45-0.338-5.47l-7e-3 -5.34-1.61 4.8c-1.41 4.22-1.67 4.78-2.11 4.67-0.277-0.0725-0.504-0.209-0.504-0.304 0-0.0945 0.933-2.97 2.07-6.39 1.74-5.22 2.15-6.21 2.58-6.21 0.479 0 0.51 0.282 0.582 5.29l0.0751 5.29 1.52-4.61c0.837-2.54 1.64-4.65 1.78-4.69 0.14-0.0443 0.403 0.0138 0.585 0.129 0.249 0.158-0.198 1.79-1.82 6.61-1.18 3.52-2.22 6.39-2.31 6.38-0.0918-0.0115-0.316-0.0809-0.498-0.154zm-50.1-1.12c0-0.227 8.44-3.32 8.6-3.16 0.0936 0.0936-8.09 3.4-8.4 3.39-0.109-0.0019-0.198-0.108-0.198-0.235zm61.6-1.42c-2.14-0.891-3.86-1.66-3.81-1.71 0.0476-0.0476 1.27 0.342 2.71 0.865s3.21 1.16 3.93 1.42c0.721 0.259 1.36 0.605 1.41 0.769 0.151 0.454-0.0527 0.389-4.24-1.35zm-38.7-1.33c-0.0812-1.2-0.217-4.29-0.301-6.86-0.151-4.6-0.144-4.68 0.408-4.85 0.309-0.0981 0.618-0.122 0.687-0.0533 0.0688 0.0688 1.13 2.96 2.37 6.42 2.19 6.14 2.31 6.71 1.39 6.73-0.191 0.0043-1.28-2.73-1.28-3.21 0-0.181-0.306-0.226-0.827-0.122-0.455 0.091-0.931 0.165-1.06 0.165-0.127 0-0.232 0.821-0.232 1.82 0 1.71-0.188 2.14-0.924 2.14-0.0478 0-0.153-0.982-0.235-2.18zm2.65-3.19c0.0417-0.0417-0.401-1.38-0.983-2.97-0.582-1.59-0.995-2.5-0.916-2 0.0783 0.491 0.142 1.9 0.142 3.14v2.25l0.841-0.168c0.462-0.0925 0.875-0.202 0.916-0.244zm14.6 4.51-1.81-0.262 0.143-0.826c0.0784-0.454 0.525-3.45 0.993-6.65 0.468-3.2 0.877-5.86 0.909-5.9 0.032-0.0442 1.08 0.0632 2.34 0.239 1.93 0.269 2.28 0.395 2.28 0.808 0 0.552-0.493 0.601-2.38 0.236-0.655-0.127-1.21-0.211-1.23-0.187-0.116 0.119-1.14 7.68-1.05 7.77 0.0563 0.0563 0.564 0.167 1.13 0.246 1.52 0.214 1.69 0.3 1.51 0.776-0.137 0.357-0.409 0.402-1.55 0.26l-1.38-0.173-0.174 1.09c-0.0958 0.599-0.115 1.19-0.0421 1.3 0.0726 0.118 0.849 0.295 1.73 0.394 1.34 0.152 1.59 0.262 1.59 0.696 0 0.582-0.171 0.592-3 0.182zm-8.83-1.1-0.742-0.638-0.0817-5.17c-0.0924-5.84 0.0629-6.52 1.6-7.03 1.87-0.612 3.64 0.812 3.64 2.92 0 0.843-0.0916 1.02-0.529 1.02-0.414 0-0.529-0.176-0.529-0.811 0-0.989-0.372-1.73-1.05-2.09-0.697-0.373-1.83 0.169-2.03 0.973-0.086 0.343-0.11 2.63-0.0541 5.08 0.113 4.95 0.233 5.32 1.7 5.32 1.01 0 1.43-0.546 1.43-1.83 0-0.751-0.0691-0.811-0.926-0.811-0.75 0-0.926-0.101-0.926-0.529 0-0.465 0.176-0.529 1.46-0.529h1.46v1.47c0 1.56-0.499 2.86-1.2 3.13-0.989 0.38-2.48 0.16-3.21-0.474zm-30.2-1.21c0-0.189 1.19-0.273 3.57-0.253 1.97 0.0167 3.51 0.127 3.44 0.244-0.208 0.336-7.01 0.345-7.01 0.0088zm57.8-0.0046c-1.49-0.138-1.09-0.18 2.03-0.218 2.36-0.0283 3.95 0.0574 4.05 0.218 0.179 0.29-2.94 0.29-6.09 0zm-52.5-1.36c-2.82-1.08-3.41-1.41-3.1-1.72 0.159-0.159 5.29 2.11 5.86 2.6 0.378 0.318 0.239 0.274-2.76-0.879zm50.6 0.712c0.0626-0.0626 1.34-0.67 2.85-1.35 1.79-0.812 2.82-1.15 2.99-0.976 0.171 0.171-0.406 0.511-1.68 0.99-1.07 0.401-2.34 0.891-2.83 1.09-0.865 0.349-1.56 0.479-1.33 0.247z"/>
  <path d="m89.8 143c-0.352-0.352 1.3-2.83 2.87-4.29 1.08-1.01 2.3-1.82 3.65-2.43 1.51-0.68 1.99-1.01 1.87-1.31-0.0884-0.218-0.399-1.53-0.691-2.91-2.11-10 3.78-19.3 13.8-21.9l1.96-0.505-2.25-0.0195c-1.24-0.0107-2.9 0.154-3.7 0.366-1.85 0.493-2.25 0.177-1.18-0.943 1.04-1.1 2.7-2.04 4.69-2.68 1.9-0.61 6.42-0.738 7.73-0.22l0.794 0.314-0.923-0.955c-1.4-1.45-3.46-2.35-5.54-2.42-2.14-0.0761-2.33-0.47-0.757-1.6 2.64-1.89 5.74-3 8.37-3 1.43 0 1.44-0.0035 0.954-0.538-0.813-0.898-3.06-2.04-5.15-2.62-3.77-1.04-8.02-0.586-12.1 1.31-1.19 0.553-2.23 0.937-2.32 0.854-0.432-0.432 0.0412-0.862 1.9-1.72 3.07-1.43 5.04-1.86 8.4-1.87 2.49-0.0021 3.22 0.103 5.03 0.723 1.16 0.399 2.67 1.08 3.35 1.52 1.44 0.923 3.39 2.95 3.39 3.53 0 0.497-8e-3 0.497-1.58-0.0177-1.69-0.552-4.44-0.156-6.95 1-2.21 1.02-2.74 1.54-1.56 1.54 1.45 0 3.68 1.22 5.55 3.02 2.92 2.82 3.46 4.41 0.964 2.82-2.13-1.35-5.31-1.7-8.53-0.945-1.45 0.341-3.76 1.3-3.76 1.55 0 0.048 0.866 0.0316 1.93-0.0364 2.24-0.144 4.33 0.237 6.01 1.09 1.22 0.619 1.64 1.43 0.661 1.27-0.291-0.0489-1.42-0.103-2.51-0.121-3.92-0.063-7.71 1.7-11.2 5.24-2.36 2.35-3.77 4.79-4.52 7.8-0.57 2.28-0.391 7.39 0.339 9.67l0.51 1.59 1.18-0.129c0.648-0.0709 2.07-0.13 3.16-0.132 1.61-3e-3 2 0.0761 2.06 0.422 0.0709 0.364-0.348 0.447-2.91 0.571-3.05 0.149-4.7 0.562-7.08 1.78-1.56 0.795-3.77 2.93-4.54 4.38-0.593 1.12-0.981 1.4-1.37 1.01zm2.55-15.9c-0.388-0.24-1.31-2.3-3.41-7.63-3.2-8.1-4.65-14-4.69-19-0.0286-4.37 0.76-6.68 3.31-9.67 2.63-3.09 2.84-3.86 1.62-6.11-0.718-1.32-0.706-1.75 0.0415-1.46 0.558 0.214 1.72 2.74 1.71 3.74-2e-3 0.965-0.735 2.21-2.58 4.36-1.71 2-2.32 3.18-2.87 5.49-1.2 5.09 0.936 14.6 5.89 26.1 1.55 3.61 1.8 4.68 0.982 4.17zm9.52-44.1c-0.216-0.564 0.631-1.27 2.7-2.24 1.6-0.752 4.29-1.55 5.28-1.57 0.465-0.0093 0.417-0.116-0.351-0.773-1.25-1.07-3.94-2.34-5.7-2.7-0.95-0.191-1.48-0.43-1.48-0.667 0-0.484 1.95-1.31 4.03-1.7 3.49-0.661 3.45-0.633 1.26-1.14-1.09-0.254-3.12-0.521-4.5-0.593-1.38-0.0726-2.68-0.184-2.88-0.248-0.817-0.259 1.1-1.65 3.66-2.65 1.71-0.673-3.76-0.264-5.68 0.424-2.44 0.877-2.78 0.93-2.78 0.432 0-0.712 1.61-2.22 3.44-3.22l1.72-0.942-1.42 0.163c-2.63 0.302-7.92 2.63-9.03 3.97-0.418 0.504-1.06 0.516-1.06 0.0203 0-1.12 4.83-3.77 8.47-4.64 2.99-0.715 8.02-0.78 7.89-0.102-0.06 0.309-0.593 0.543-1.79 0.787-1.6 0.326-5.79 2.09-5.54 2.34 0.0616 0.0616 0.645-0.0206 1.3-0.183 0.651-0.162 2.73-0.293 4.62-0.29 4.71 6e-3 6.53 0.75 3.24 1.33-1.83 0.321-4.7 1.33-4.7 1.65 0 0.113 0.923 0.278 2.05 0.366 3.15 0.245 9.19 2.19 9.19 2.96 0 0.145-1.57 0.259-3.7 0.271-2.73 0.0148-3.95 0.128-4.63 0.429l-0.926 0.409 1.06 0.338c2.05 0.655 7.13 4.03 6.94 4.61-0.0594 0.179-0.82 0.318-1.87 0.344-0.975 0.0236-2.57 0.29-3.55 0.591-1.91 0.589-4.56 1.99-4.56 2.41 0 0.426-0.533 0.293-0.714-0.179zm-20.5-4.19c0-0.44 0.252-0.512 3.48-0.989l2.28-0.339-2.08-2.65c-1.15-1.46-2.05-2.76-2-2.89 0.217-0.678 0.798-0.177 3.04 2.62 2.19 2.73 2.82 3.83 2.24 3.85-0.109 0.0046-1.39 0.181-2.84 0.392-3.42 0.495-4.1 0.495-4.1 0.0018zm7.6-6.12c-0.652-0.652 0.221-1.85 1.14-1.55 0.844 0.268 0.629 1.56-0.277 1.66-0.369 0.0431-0.756-0.0065-0.86-0.11z"/>
  <path d="m96.8 171c-5.76-0.685-9.56-1.42-13.6-2.65-15.3-4.62-28.6-14.6-37.4-28.1-11.8-18.1-14.1-41.6-6.1-61.6 8.43-21.2 26.7-36.6 48.8-41.4 10.9-2.34 23.1-1.86 33.7 1.33 19.7 5.95 35.6 20.5 43.4 39.4 2.04 5.01 3.32 9.7 4.31 15.8 0.553 3.42 0.758 12.3 0.372 16.2-1.32 13.2-6.42 25.7-14.7 36.1-4.13 5.19-10.9 11.2-16.9 15-8.04 5.07-18.3 8.64-28.1 9.79-2.98 0.348-11.4 0.482-13.7 0.217zm15.6-1.96c18.5-2.66 35.1-13.2 45.5-28.8 2.56-3.85 3.92-6.3 5.46-9.79 8.76-20 7.4-42.4-3.7-61.1-5.39-9.08-14-17.6-23.3-23.1-7.69-4.55-16.8-7.6-26.1-8.74-3.86-0.477-12.3-0.404-16.1 0.14-14.9 2.11-27.8 8.47-38.2 18.9-10.3 10.3-16.6 22.9-18.8 37.4-0.745 4.93-0.81 13.1-0.142 17.9 2.04 14.9 8.45 27.9 18.9 38.4 11.6 11.6 26.5 18.3 43 19.4 3.05 0.202 9.82-0.123 13.4-0.643zm-13.7-1.72c-6.28-0.624-10.6-1.45-15.2-2.91-9.54-3.02-17.8-7.96-25.1-15.1-10.5-10.2-16.8-22.6-19-37.3-0.564-3.89-0.636-12.6-0.134-16.3 2.09-15.3 8.46-28 19.4-38.5 9.7-9.37 21.6-15.1 35.6-17.2 3.6-0.541 12.7-0.611 16.2-0.125 15.2 2.08 27.9 8.43 38.3 19.1 9.8 10.1 15.6 22.3 17.6 36.7 0.44 3.24 0.44 12.1 0 15.3-2.04 15-8.37 27.8-18.8 38-9.86 9.67-22.2 15.7-36 17.7-2.96 0.414-10.7 0.724-12.8 0.512zm8.33-0.643c16.2-1.21 30.1-7.7 41.3-19.2 9.64-9.95 15.4-22 17.4-35.9 0.534-3.86 0.534-12.3 0-16.2-1.31-9.48-4.73-18.8-9.64-26.3-10.3-15.8-26.4-25.9-45.2-28.5-3.62-0.496-11.8-0.556-15.4-0.112-14.9 1.85-27.9 8.32-38.2 19-9.64 9.95-15.4 22-17.4 35.9-0.534 3.86-0.534 12.3 0 16.2 1.93 14 7.74 26 17.4 35.9 11.9 12.3 26.8 18.8 44.8 19.4 0.728 0.0272 2.93-0.0711 4.89-0.218z"/>
 </g>
</svg>
