<?xml version="1.0" encoding="UTF-8" standalone="no"?>
<svg
   height="100"
   width="100"
   fill="#497cbf"
   viewBox="0 0 90 90"
   version="1.1"
   id="svg23"
   sodipodi:docname="logo-blue.svg"
   inkscape:version="1.1.1 (3bf5ae0d25, 2021-09-20)"
   xmlns:inkscape="http://www.inkscape.org/namespaces/inkscape"
   xmlns:sodipodi="http://sodipodi.sourceforge.net/DTD/sodipodi-0.dtd"
   xmlns="http://www.w3.org/2000/svg"
   xmlns:svg="http://www.w3.org/2000/svg">
  <defs
     id="defs27" />
  <sodipodi:namedview
     id="namedview25"
     pagecolor="#ffffff"
     bordercolor="#666666"
     borderopacity="1.0"
     inkscape:pageshadow="2"
     inkscape:pageopacity="0.0"
     inkscape:pagecheckerboard="0"
     showgrid="false"
     inkscape:zoom="8.09"
     inkscape:cx="25.648949"
     inkscape:cy="50"
     inkscape:window-width="1920"
     inkscape:window-height="1017"
     inkscape:window-x="-8"
     inkscape:window-y="-8"
     inkscape:window-maximized="1"
     inkscape:current-layer="svg23" />
  <path
     id="jar"
     style="stroke-width:1.11111"
     d="M 31.542969 2.5761719 A 3.5633333 3.5633333 0 0 0 27.980469 6.140625 L 27.980469 11.064453 L 30.951172 11.064453 L 30.951172 15.390625 C 23.616727 15.835069 17.785156 21.943385 17.785156 29.386719 L 17.785156 83.400391 C 17.785156 91.133724 24.074149 97.423828 31.808594 97.423828 L 68.191406 97.423828 C 75.92474 97.423828 82.212891 91.134835 82.212891 83.400391 L 82.212891 29.386719 C 82.212891 21.943385 76.383273 15.835069 69.048828 15.390625 L 69.048828 11.064453 L 72.021484 11.064453 L 72.021484 6.140625 A 3.5633333 3.5633333 0 0 0 68.457031 2.5761719 L 31.542969 2.5761719 z M 34.148438 11.349609 L 65.851562 11.349609 L 65.851562 18.560547 L 68.191406 18.560547 C 74.161406 18.560547 79.017578 23.416719 79.017578 29.386719 L 79.017578 83.400391 C 79.017578 89.370391 74.161406 94.226563 68.191406 94.226562 L 31.808594 94.226562 C 25.838594 94.226562 20.982422 89.370391 20.982422 83.400391 L 20.982422 29.386719 C 20.982422 23.41783 25.838594 18.560547 31.808594 18.560547 L 34.148438 18.560547 L 34.148438 11.349609 z M 50.480469 87.076172 C 39.508247 87.076172 30.615234 88.131372 30.615234 89.433594 C 30.615234 90.735816 39.508247 90.724609 50.480469 90.724609 C 61.453802 90.724609 70.349609 90.735816 70.349609 89.433594 C 70.349609 88.131372 61.454644 87.076172 50.482422 87.076172 L 50.480469 87.076172 z "
     transform="scale(0.9)" />
  <path
     d="M 36.125998,28.655 C 34.366,30.588 33.832,32.982 34.996,34.273 c 1.162998,1.291 3.599998,1.008 5.704998,-0.542 0.53,1.199 1.353,2.153 1.903,2.79 l 0.597,0.695 0.666,-0.63 c 1.333,-1.25 4.106,-3.881 2.46,-7.71 1.32,-1.353 1.414,-3.499 0.13,-4.924 -1.285,-1.425 -3.432,-1.555 -4.915,-0.379 -3.658,-2.05 -6.543998,0.438 -7.928998,1.637 l -0.694,0.597 0.629,0.666 c 0.576,0.613 1.44,1.53 2.577998,2.182 z m 7.18,6.524 c -1.117,-1.328 -2.386,-3.222 -1.212,-5.636 0.92948,0.494515 2.02977,0.553793 3.007,0.162 0.912,2.52 -0.546,4.27 -1.794,5.474 z m -2.709,-10.478 c -0.49187,0.928599 -0.55002,2.026638 -0.159,3.002 -2.524,0.92 -4.277,-0.541 -5.482998,-1.79 1.329998,-1.118 3.224998,-2.39 5.641998,-1.212 z M 31.125,37.77 c 0.254774,0.283819 0.691483,0.30711 0.975,0.052 0.283,-0.256 1.65,-2.418 1.65,-2.418 0,0 -2.291,1.136 -2.574,1.392 -0.283523,0.25506 -0.306365,0.691752 -0.051,0.975 z m 3.436,1.853 c 0.37123,0.08952 0.744574,-0.139508 0.832998,-0.511 0.088,-0.371 -0.01,-2.927 -0.01,-2.927 0,0 -1.244998,2.234 -1.333998,2.605 -0.08952,0.371231 0.139507,0.744576 0.511,0.833 z m 2.873998,-0.703 c 0.21386,0.896648 1.55898,0.574139 1.343,-0.322 -0.089,-0.37 -1.336,-2.605 -1.336,-2.605 0,0 -0.096,2.557 -0.007,2.928 z M 30.635,31.375 c 0.36,0.127 2.912,0.296 2.912,0.296 0,0 -2.093,-1.471 -2.452,-1.598 -0.86799,-0.306646 -1.32799,0.995354 -0.46,1.302 z m -0.221,3.38 c 0.378,-0.05 2.73,-1.056 2.73,-1.056 0,0 -2.533,-0.363 -2.91,-0.313 -0.913333,0.12 -0.733333,1.49 0.18,1.37 z"
     id="topFirefly"
     sodipodi:nodetypes="ccccccccccccccccccccccccccccccccccccccccccccccc" />
  <path
     d="m 47.531998,47.131 c -1.481,1.178 -1.843,3.298 -0.746,4.873 1.096,1.573 3.207,1.97 4.825,0.991 3.355,2.471 6.547,0.369 8.067,-0.646 l 0.764,-0.506 -0.541,-0.74 c -0.495,-0.68 -1.238,-1.697 -2.285,-2.486 1.987,-1.698 2.816,-4.007 1.823,-5.433 -0.993,-1.426 -3.446,-1.45 -5.728,-0.174 -0.377,-1.256 -1.074,-2.306 -1.54,-3.006 l -0.506,-0.764 -0.74,0.54 c -1.48,1.077 -4.56,3.323 -3.393,7.351 z m 5.165,4.858 c 0.6029,-0.862891 0.79462,-1.947732 0.524,-2.965 2.618,-0.596 4.174,1.07 5.214,2.46 -1.457,0.942 -3.492,1.965 -5.738,0.505 z m -1.391,-10.742 c 0.943,1.458 1.968,3.497 0.5,5.747 -0.86109,-0.602571 -1.94385,-0.795346 -2.96,-0.527 -0.6,-2.622 1.069,-4.178 2.46,-5.22 z m 12.246,-0.077 c 0.7559,-0.526684 -0.0341,-1.660684 -0.79,-1.134 -0.312,0.218 -1.94,2.192 -1.94,2.192 0,0 2.417,-0.84 2.73,-1.058 z m 0.501,2.119 c -0.382,0.002 -2.84,0.707 -2.84,0.707 0,0 2.466,0.676 2.848,0.674 0.92056,-0.0054 0.91256,-1.386435 -0.008,-1.381 z m -3.494,2.668 c 0,0 1.892,1.721 2.233,1.893 0.82332,0.413291 1.44332,-0.821709 0.62,-1.235 -0.342,-0.171 -2.853,-0.658 -2.853,-0.658 z m -2.953,-7.677 c -0.13862,-0.866939 -1.42651,-0.724257 -1.372,0.152 0.042,0.379 1,2.751 1,2.751 0,0 0.414,-2.525 0.372,-2.904 z m 2.939,-0.338 c -0.35707,-0.134982 -0.75588,0.04561 -0.89,0.403 -0.133,0.357 -0.355,2.905 -0.355,2.905 0,0 1.514,-2.062 1.648,-2.419 0.13498,-0.357068 -0.0456,-0.755884 -0.403,-0.89 z"
     id="midFirefly"
     sodipodi:nodetypes="cccccccscccccccccccccccccccccccccccccccccccc" />
  <path
     d="m 31.253,67.469 c 0.425,4.154 4.11,5.09 5.881998,5.537 l 0.888,0.227 0.186,-0.897 c 0.172,-0.823 0.428,-2.057 0.311,-3.363 2.592,0.335 4.86,-0.599 5.252,-2.293 0.392,-1.693 -1.236,-3.528 -3.712,-4.365 0.678,-1.122 0.989,-2.342 1.195,-3.158 l 0.228,-0.888 -0.898,-0.185 c -1.785,-0.375 -5.516998,-1.136 -7.713998,2.38 -1.882326,-0.32413 -3.690881,0.875726 -4.124,2.736 -0.427542,1.862186 0.671617,3.734616 2.506,4.269 z m 5.689998,4.035 C 35.268,71.056 33.143,70.234 32.719,67.591 c 1.04773,-0.131421 1.98521,-0.715473 2.565,-1.598 2.185998,1.542 1.990998,3.81 1.659998,5.51 z m 2.81,-12.154 c -0.448,1.673 -1.268,3.794 -3.906,4.221 -0.13037,-1.049948 -0.715378,-1.989626 -1.599998,-2.57 1.542998,-2.177 3.806998,-1.983 5.505998,-1.651 z m 9.104,8.5 c 0.0872,-0.372419 -0.14513,-0.744733 -0.518,-0.83 -0.371,-0.085 -2.927,0.033 -2.927,0.033 0,0 2.245,1.227 2.616,1.313 0.37167,0.08606 0.74277,-0.145367 0.829,-0.517 z m -0.841,-2.983 c 0.85667,-0.337333 0.35067,-1.622333 -0.506,-1.285 -0.355,0.14 -2.394,1.685 -2.394,1.685 0,0 2.545,-0.26 2.9,-0.4 z m -2.866,-3.764 c -0.253,0.285 -1.37,2.587 -1.37,2.587 0,0 2.15,-1.386 2.404,-1.672 0.61,-0.689333 -0.424,-1.604333 -1.034,-0.915 z m -2.585,11.181 c 0.2466,0.886779 1.5766,0.516779 1.33,-0.37 -0.101,-0.367 -1.425,-2.556 -1.425,-2.556 0,0 -0.007,2.559 0.095,2.926 z m 4.185,-1.149 c 0.28063,-0.257592 0.29986,-0.693704 0.043,-0.975 -0.258,-0.282 -2.43,-1.633 -2.43,-1.633 0,0 1.153,2.284 1.41,2.565 0.258,0.281 0.695,0.3 0.977,0.043 z"
     id="botFirefly"
     sodipodi:nodetypes="ccccccccccccccccccccccccccccccccccccccccccccc" />
</svg>
